<?xml version="1.0" encoding="UTF-8" standalone="no"?>
<!DOCTYPE svg PUBLIC "-//W3C//DTD SVG 1.1//EN" "http://www.w3.org/Graphics/SVG/1.1/DTD/svg11.dtd">
<svg width="100%" height="100%" viewBox="0 0 3348 3348" version="1.1" xmlns="http://www.w3.org/2000/svg" xmlns:xlink="http://www.w3.org/1999/xlink" xml:space="preserve" xmlns:serif="http://www.serif.com/" style="fill-rule:evenodd;clip-rule:evenodd;stroke-linecap:round;stroke-linejoin:round;stroke-miterlimit:1.5;">
    <g id="Artboard1" transform="matrix(0.884969,0,0,0.884969,-903.547,-821.406)">
        <rect x="1020.99" y="928.175" width="3782.31" height="3782.31" style="fill:none;"/>
        <g transform="matrix(1.00346,0.0100629,-0.00976639,0.973892,-190.18,-213.933)">
            <circle cx="3121.63" cy="3082.32" r="1872.81" style="fill:rgb(255,231,216);"/>
        </g>
        <g id="Illustration-Me" serif:id="Illustration Me" transform="matrix(0.673687,-0.0754429,0.075453,0.673777,911.816,997.823)">
            <clipPath id="_clip1">
                <path d="M2959.66,327.822C4478.49,513.322 5565.4,1860.52 5385.34,3334.4C5205.28,4808.27 3826,5854.27 2307.18,5668.77C788.356,5483.27 -298.552,4136.06 -118.493,2662.19C61.565,1188.32 1440.84,142.322 2959.66,327.822Z"/>
            </clipPath>
            <g clip-path="url(#_clip1)">
                <path id="Neck" d="M2227.05,3490.64C2227.05,3490.64 2123.61,3702.52 1761.14,3793.14C1441.84,3872.96 3359.28,4110.3 3359.28,4110.3C3359.28,4110.3 2951.09,3859.9 2935.03,3578.95" style="fill:rgb(239,112,96);stroke:rgb(239,112,96);stroke-width:138.9px;"/>
                <g id="Shirt">
                    <g transform="matrix(-0.730692,-0.0836981,-0.125516,1.09577,4990.69,-254.339)">
                        <path d="M-51.204,5089.16C-51.204,5089.16 351.127,5135.51 975.727,5352.83C2266.31,5801.89 4487.12,5938.87 5639.31,5148.06C4974.74,4408.75 3886.11,3965.41 3886.11,3965.41C3896.93,3963.89 3509.94,3969.56 2928.41,3975.98C2798.72,3977.41 2861.14,4041.49 2706.32,4043.2C2534.43,4045.1 2584.16,3990.59 2474.94,3991.8C1974.97,3997.31 1676.4,3978 1457.54,4053.15C1457.54,4053.15 602.675,4345.62 -51.204,5089.16" style="fill:rgb(243,148,90);"/>
                    </g>
                    <g transform="matrix(-0.604742,-0.486404,0.76625,-0.797985,1796.15,7382.85)">
                        <path d="M2263.69,2892.81C1906.41,2866.59 1782.77,2835.68 1466.21,3263.91L1837.83,3336.05L1961.37,3313.71L2236.75,3128.39L2263.69,2892.81Z" style="fill:rgb(239,71,106);"/>
                    </g>
                    <g transform="matrix(0.739943,-0.234065,-0.424813,-1.0215,1940.88,7464.46)">
                        <path d="M2277.67,2883.98C1920.39,2857.76 1819.74,2839.39 1503.18,3267.62L1821.85,3314.85L1977.79,3300.38L2236.75,3128.39L2277.67,2883.98Z" style="fill:rgb(239,71,106);"/>
                    </g>
                </g>
                <g id="Head" transform="matrix(-0.995844,0.0910808,0.0910808,0.995844,5446.81,-947.121)">
                    <path d="M4178.14,2800.87C4028.92,1896.11 3246.12,1571.92 2651.01,1723.26C2094.01,1864.92 1735.32,2329.37 1802.62,3046.95C1890.27,3981.62 2377.06,4326.05 3055.21,4262.45C3527.15,4218.19 4376.2,4001.83 4178.14,2800.87Z" style="fill:rgb(239,112,96);stroke:rgb(239,112,96);stroke-width:126.24px;"/>
                </g>
                <g id="Hair" transform="matrix(-0.979429,-0.201791,-0.201791,0.979429,5757.88,490.535)">
                    <path d="M1429.42,2202.65C1583.83,1740.78 2012.88,1332.71 2277.1,1439.03C2441.09,1505.03 2569.64,1603.31 2936.97,1551.11C3220.16,1510.87 3362.24,1543.94 3516.54,1722.67C3702.94,1938.59 3737.26,2272.54 3771.43,2401.43C3781.22,2438.38 3848.95,2439.54 3848.95,2439.54C3848.95,2439.54 4102.63,1093.72 2624.9,999.536C1391.91,920.951 1352.7,2210.9 1352.7,2210.9" style="fill:rgb(83,3,3);"/>
                </g>
                <g id="Lips" transform="matrix(0.896298,0,0,0.841521,379.641,833.596)">
                    <path d="M2126.47,2663.59C2097.58,2688.95 2110.84,2764.54 2119.05,2775.93C2327.29,3064.51 2681.36,3066.82 2864.07,2886.17C2909.32,2841.43 2894.22,2806.85 2898.55,2779.78C2902.88,2752.71 2730.28,2620.69 2643.08,2609.14C2555.05,2597.47 2555.09,2681.22 2437.77,2598.23C2327.7,2520.36 2155.35,2638.22 2126.47,2663.59Z" style="fill:rgb(239,71,106);"/>
                </g>
                <g id="Glasses" transform="matrix(0.999193,-0.0401645,0.0401645,0.999193,-76.636,122.869)">
                    <g transform="matrix(2.11309,0.415076,-0.40325,2.34696,-106.644,-3288.1)">
                        <path d="M1813.76,1924.36C1813.76,1924.36 1835.62,1915.22 1886.34,1894.02C1995.71,1848.29 2196.72,1800.1 2376.11,1951.34L2386.4,2188.18C2408.86,2299.37 1937.33,2372.07 1830.35,2208.78L1813.76,1924.36Z" style="fill:none;stroke:black;stroke-width:60.47px;"/>
                    </g>
                    <g transform="matrix(1.92545,0.169799,-0.201899,2.37768,-1687.83,-3137.68)">
                        <path d="M1804.61,1935.9C1806.25,1939.78 2120.99,1747.61 2376.11,1951.34L2367.69,2217.05C2390.14,2328.25 1910.08,2354.89 1803.1,2191.6L1804.61,1935.9Z" style="fill:none;stroke:black;stroke-width:63.86px;"/>
                    </g>
                    <g transform="matrix(1.24985,0.0521354,-0.0521393,1.46981,-671.806,-906.404)">
                        <path d="M2608.18,1817.06L2975.34,1859.03L2608.18,1817.06Z" style="fill:none;stroke:black;stroke-width:101.42px;"/>
                    </g>
                </g>
                <g id="Pocket" transform="matrix(1.66689,0,0,1.66667,-2179.85,-1605.54)">
                    <path d="M3053.63,3786.17C3053.63,3786.17 3048.58,4080.09 3210.24,4097.01C3436.94,4120.73 3402.68,3785.95 3402.68,3785.95" style="fill:none;stroke:rgb(239,71,106);stroke-width:29.02px;stroke-linecap:butt;stroke-linejoin:miter;stroke-dasharray:29.02,29.02;"/>
                    <g transform="matrix(1.01515,0.0290337,-0.0150208,0.525195,4.22766,1713.48)">
                        <path d="M3420.8,3733.2L3042.6,3731.36L3046.69,3797.6L3419.96,3797.6L3420.8,3733.2Z" style="fill:rgb(239,71,106);"/>
                    </g>
                </g>
                <g id="Buttons" transform="matrix(1.66685,-0.0110799,0.00994357,1.49551,-2221.58,-795.93)">
                    <path d="M2822.39,3334.38L2786.2,3821.52L2754.39,4301.04" style="fill:none;stroke:rgb(239,71,106);stroke-width:47.97px;stroke-linejoin:miter;stroke-dasharray:4.8,431.74,4.8,431.74;"/>
                </g>
                <g id="Freckles" transform="matrix(1.66689,0,0,1.66667,-2179.85,-1605.54)">
                    <g transform="matrix(0.999013,-0.0444207,0.0444207,0.999013,694.374,208.901)">
                        <circle cx="2419.26" cy="2781.44" r="23.619" style="fill:rgb(239,71,106);"/>
                        <path d="M2419.26,2757.82C2429.51,2757.82 2438.25,2764.37 2441.51,2773.51L2419.31,2781.43L2424.55,2782.5C2424.3,2783.75 2423.61,2784.84 2422.64,2785.61L2434.19,2799.73C2430.12,2803.06 2424.92,2805.06 2419.26,2805.06C2414.78,2805.06 2410.6,2803.81 2407.03,2801.65L2416.49,2786.06C2415.43,2785.43 2414.6,2784.44 2414.18,2783.26L2419.24,2781.46L2419.24,2781.43L2419.22,2781.41L2396.12,2776.7C2398.1,2766.99 2406.04,2759.44 2415.96,2758.05L2418.49,2776.11C2417.49,2776.24 2416.57,2776.65 2415.83,2777.26L2419.22,2781.41L2419.23,2781.41L2418.49,2776.11L2419.26,2776.04L2419.26,2757.82ZM2419.26,2781.61L2419.25,2781.52L2416.49,2786.06C2417.3,2786.56 2418.24,2786.84 2419.26,2786.84L2419.26,2781.61ZM2422.64,2785.61L2419.27,2781.48L2419.26,2781.49L2419.26,2781.61L2419.99,2786.79C2420.99,2786.64 2421.91,2786.23 2422.64,2785.61ZM2419.3,2781.43L2422.09,2776.84C2421.26,2776.34 2420.29,2776.04 2419.26,2776.04L2419.26,2781.42L2419.3,2781.43L2419.3,2781.43L2419.31,2781.43L2419.3,2781.43Z" style="fill:rgb(239,71,106);"/>
                    </g>
                    <g transform="matrix(0.622646,-0.0276857,0.0320615,0.721056,1727.62,999.612)">
                        <circle cx="2419.26" cy="2781.44" r="23.619" style="fill:rgb(239,71,106);"/>
                        <path d="M2419.26,2757.82C2432.3,2757.82 2442.88,2768.4 2442.88,2781.44C2442.88,2783.35 2442.65,2785.21 2442.2,2786.98L2440.9,2786.75C2441.71,2785.14 2442.2,2783.35 2442.2,2781.44C2442.2,2775.83 2438.19,2771.39 2433.71,2768.69L2424.08,2780.65L2430.47,2784.87L2440.9,2786.75C2440.29,2788.02 2439.47,2789.18 2438.55,2790.22L2430.47,2784.87L2421.92,2783.34L2419.26,2786.63L2419.26,2798.02C2416.51,2798.02 2413.68,2797.65 2410.98,2796.91L2419.26,2786.63L2419.26,2782.86L2396.64,2778.79C2396.43,2779.64 2396.32,2780.53 2396.32,2781.44C2396.32,2789.49 2403.07,2794.75 2410.98,2796.91L2407.14,2801.68C2400.25,2797.57 2395.64,2790.04 2395.64,2781.44C2395.64,2775.44 2397.88,2769.95 2401.6,2765.8L2419.26,2777.47L2419.26,2757.82Z" style="fill:rgb(239,71,106);"/>
                    </g>
                    <g transform="matrix(0.999013,-0.0444207,0.0444207,0.999013,852.031,178.54)">
                        <circle cx="2419.26" cy="2781.44" r="23.619" style="fill:rgb(239,71,106);"/>
                        <path d="M2419.26,2757.82C2429.51,2757.82 2438.25,2764.37 2441.51,2773.51L2419.31,2781.43L2424.55,2782.5C2424.3,2783.75 2423.61,2784.84 2422.64,2785.61L2434.19,2799.73C2430.12,2803.06 2424.92,2805.06 2419.26,2805.06C2414.78,2805.06 2410.6,2803.81 2407.03,2801.65L2416.49,2786.06C2415.43,2785.43 2414.6,2784.44 2414.18,2783.26L2419.24,2781.46L2419.24,2781.43L2419.22,2781.41L2396.12,2776.7C2398.1,2766.99 2406.04,2759.44 2415.96,2758.05L2418.49,2776.11C2417.49,2776.24 2416.57,2776.65 2415.83,2777.26L2419.22,2781.41L2419.23,2781.41L2418.49,2776.11L2419.26,2776.04L2419.26,2757.82ZM2419.26,2781.61L2419.25,2781.52L2416.49,2786.06C2417.3,2786.56 2418.24,2786.84 2419.26,2786.84L2419.26,2781.61ZM2422.64,2785.61L2419.27,2781.48L2419.26,2781.49L2419.26,2781.61L2419.99,2786.79C2420.99,2786.64 2421.91,2786.23 2422.64,2785.61ZM2419.26,2776.04L2419.26,2781.42L2419.3,2781.43L2419.3,2781.43L2419.31,2781.43L2419.3,2781.43L2422.09,2776.84C2421.26,2776.34 2420.29,2776.04 2419.26,2776.04Z" style="fill:rgb(239,71,106);"/>
                    </g>
                    <g transform="matrix(0.829958,0.557826,-0.557826,0.829958,1924.26,-917.898)">
                        <circle cx="2419.26" cy="2781.44" r="23.619" style="fill:rgb(239,71,106);"/>
                        <path d="M2396.12,2776.7C2398.1,2766.99 2406.04,2759.44 2415.96,2758.05L2418.49,2776.11C2418.49,2776.11 2419.26,2776.04 2419.26,2776.04L2419.26,2781.42L2419.3,2781.43L2419.3,2781.43L2419.31,2781.43L2424.55,2782.5C2424.3,2783.75 2423.61,2784.84 2422.64,2785.61L2434.19,2799.73C2430.12,2803.06 2424.92,2805.06 2419.26,2805.06C2414.78,2805.06 2410.6,2803.81 2407.03,2801.65L2416.49,2786.06C2415.43,2785.43 2414.6,2784.44 2414.18,2783.26L2419.24,2781.46L2419.24,2781.43L2419.22,2781.41L2396.12,2776.7ZM2422.64,2785.61L2419.27,2781.48L2419.26,2781.49L2419.26,2781.61L2419.99,2786.79C2420.99,2786.64 2421.91,2786.23 2422.64,2785.61ZM2419.26,2781.61L2419.25,2781.52L2416.49,2786.06C2417.3,2786.56 2418.24,2786.84 2419.26,2786.84L2419.26,2781.61ZM2419.26,2757.82C2429.51,2757.82 2438.25,2764.37 2441.51,2773.51L2419.31,2781.43L2419.3,2781.43L2422.09,2776.84C2421.26,2776.34 2420.29,2776.04 2419.26,2776.04L2419.26,2757.82ZM2418.49,2776.11C2417.49,2776.24 2416.57,2776.65 2415.83,2777.26L2419.22,2781.41L2419.23,2781.41L2418.49,2776.11Z" style="fill:rgb(239,71,106);"/>
                    </g>
                    <g transform="matrix(0.517281,0.347671,-0.402621,0.599038,2285.56,332.012)">
                        <circle cx="2419.26" cy="2781.44" r="23.619" style="fill:rgb(239,71,106);"/>
                        <path d="M2419.26,2757.82C2432.3,2757.82 2442.88,2768.4 2442.88,2781.44C2442.88,2783.35 2442.65,2785.21 2442.2,2786.98L2440.9,2786.75C2441.71,2785.14 2442.2,2783.35 2442.2,2781.44C2442.2,2775.83 2438.19,2771.39 2433.71,2768.69L2424.08,2780.65L2430.47,2784.87L2440.9,2786.75C2440.29,2788.02 2439.47,2789.18 2438.55,2790.22L2430.47,2784.87L2421.92,2783.34L2419.26,2786.63L2419.26,2798.02C2416.51,2798.02 2413.68,2797.65 2410.98,2796.91L2419.26,2786.63L2419.26,2782.86L2396.64,2778.79C2396.43,2779.64 2396.32,2780.53 2396.32,2781.44C2396.32,2789.49 2403.07,2794.75 2410.98,2796.91L2407.14,2801.68C2400.25,2797.57 2395.64,2790.04 2395.64,2781.44C2395.64,2775.44 2397.88,2769.95 2401.6,2765.8L2419.26,2777.47L2419.26,2757.82Z" style="fill:rgb(239,71,106);"/>
                    </g>
                    <g transform="matrix(0.829958,0.557826,-0.557826,0.829958,2069.11,-848.648)">
                        <circle cx="2419.26" cy="2781.44" r="23.619" style="fill:rgb(239,71,106);"/>
                        <path d="M2396.12,2776.7C2398.1,2766.99 2406.04,2759.44 2415.96,2758.05L2418.49,2776.11C2418.49,2776.11 2419.26,2776.04 2419.26,2776.04L2419.26,2781.42L2419.3,2781.43L2419.3,2781.43L2419.31,2781.43L2424.55,2782.5C2424.3,2783.75 2423.61,2784.84 2422.64,2785.61L2434.19,2799.73C2430.12,2803.06 2424.92,2805.06 2419.26,2805.06C2414.78,2805.06 2410.6,2803.81 2407.03,2801.65L2416.49,2786.06C2415.43,2785.43 2414.6,2784.44 2414.18,2783.26L2419.24,2781.46L2419.24,2781.43L2419.22,2781.41L2396.12,2776.7ZM2422.64,2785.61L2419.27,2781.48L2419.26,2781.49L2419.26,2781.61L2419.99,2786.79C2420.99,2786.64 2421.91,2786.23 2422.64,2785.61ZM2419.26,2781.61L2419.25,2781.52L2416.49,2786.06C2417.3,2786.56 2418.24,2786.84 2419.26,2786.84L2419.26,2781.61ZM2419.26,2757.82C2429.51,2757.82 2438.25,2764.37 2441.51,2773.51L2419.31,2781.43L2419.3,2781.43L2422.09,2776.84C2421.26,2776.34 2420.29,2776.04 2419.26,2776.04L2419.26,2757.82ZM2418.49,2776.11C2417.49,2776.24 2416.57,2776.65 2415.83,2777.26L2419.22,2781.41L2419.23,2781.41L2418.49,2776.11Z" style="fill:rgb(239,71,106);"/>
                    </g>
                </g>
            </g>
        </g>
    </g>
</svg>
